<svg xmlns="http://www.w3.org/2000/svg" width="300" height="420" viewBox="0 0 300 420" fill="none">
  <rect width="300" height="420" rx="12" fill="#0f172a"/>
  <rect x="8" y="8" width="284" height="404" rx="8" stroke="#1e293b" stroke-width="2"/>
  <rect x="24" y="24" width="252" height="372" rx="6" fill="#1e293b" fill-opacity="0.4"/>
  <path d="M150 140v60M120 170h60" stroke="#059669" stroke-width="4" stroke-linecap="round"/>
  <path d="M110 130c0-11 9-20 20-20h40c11 0 20 9 20 20v140c0 11-9 20-20 20h-40c-11 0-20-9-20-20V130z" stroke="#334155" stroke-width="3"/>
  <path d="M125 150h50M125 175h50M125 200h35" stroke="#475569" stroke-width="3" stroke-linecap="round"/>
  <text x="150" y="260" text-anchor="middle" fill="#94a3b8" font-family="system-ui, sans-serif" font-size="14" font-weight="bold">NO COVER IMAGE</text>
  <text x="150" y="280" text-anchor="middle" fill="#64748b" font-family="system-ui, sans-serif" font-size="11">FCC DIGITAL REPOSITORY</text>
  <rect x="40" y="325" width="220" height="30" rx="6" fill="#0f172a" stroke="#334155"/>
  <text x="150" y="345" text-anchor="middle" fill="#10b981" font-family="monospace" font-size="11" font-weight="bold">METADATA CATALOGED</text>
</svg>
